<svg width="8" height="8" viewBox="0 0 8 8" fill="none" xmlns="http://www.w3.org/2000/svg">
<path d="M3.5833 1.06006C3.63072 0.914113 3.8372 0.914113 3.88462 1.06006L4.55198 3.114C4.57319 3.17927 4.63401 3.22346 4.70264 3.22346L6.86228 3.22346C7.01574 3.22346 7.07954 3.41983 6.95539 3.51003L5.20821 4.77943C5.15269 4.81977 5.12945 4.89127 5.15066 4.95655L5.81803 7.01048C5.86545 7.15643 5.6984 7.27779 5.57425 7.18759L3.82707 5.91819C3.77155 5.87785 3.69637 5.87785 3.64084 5.91819L1.89366 7.18759C1.76951 7.27779 1.60247 7.15643 1.64989 7.01048L2.31725 4.95655C2.33846 4.89127 2.31523 4.81977 2.2597 4.77943L0.512524 3.51003C0.388372 3.41983 0.452178 3.22346 0.605637 3.22346L2.76527 3.22346C2.8339 3.22346 2.89472 3.17927 2.91593 3.114L3.5833 1.06006Z" fill="#F1CC4A"/>
</svg>
